<mxfile host="app.diagrams.net" modified="2020-12-13T16:12:59.010Z" agent="5.0 (Windows NT 10.0; Win64; x64) AppleWebKit/537.36 (KHTML, like Gecko) Chrome/87.0.4280.88 Safari/537.36" etag="pxwv3cZqyk7q5JytffGW" version="13.10.8" type="github">
  <diagram id="7dhG77_Q10vjQAKvfWMw" name="Page-1">
    <mxGraphModel dx="716" dy="426" grid="1" gridSize="10" guides="1" tooltips="1" connect="1" arrows="1" fold="1" page="1" pageScale="1" pageWidth="827" pageHeight="1169" math="0" shadow="0">
      <root>
        <mxCell id="0" />
        <mxCell id="1" parent="0" />
        <mxCell id="WyiyPVkX2-RSNoQSLLox-2" style="edgeStyle=orthogonalEdgeStyle;rounded=0;orthogonalLoop=1;jettySize=auto;html=1;exitX=1;exitY=0.25;exitDx=0;exitDy=0;entryX=0;entryY=0.25;entryDx=0;entryDy=0;" edge="1" parent="1" source="9NKGEl0jnILZwDAVQmjc-1" target="9NKGEl0jnILZwDAVQmjc-3">
          <mxGeometry relative="1" as="geometry" />
        </mxCell>
        <mxCell id="9NKGEl0jnILZwDAVQmjc-1" value="Client" style="rounded=1;whiteSpace=wrap;html=1;" parent="1" vertex="1">
          <mxGeometry x="80" y="200" width="120" height="60" as="geometry" />
        </mxCell>
        <mxCell id="WyiyPVkX2-RSNoQSLLox-9" style="edgeStyle=orthogonalEdgeStyle;rounded=0;orthogonalLoop=1;jettySize=auto;html=1;exitX=0;exitY=0.75;exitDx=0;exitDy=0;entryX=1;entryY=0.75;entryDx=0;entryDy=0;" edge="1" parent="1" source="9NKGEl0jnILZwDAVQmjc-2" target="9NKGEl0jnILZwDAVQmjc-3">
          <mxGeometry relative="1" as="geometry" />
        </mxCell>
        <mxCell id="9NKGEl0jnILZwDAVQmjc-2" value="" style="rounded=1;whiteSpace=wrap;html=1;" parent="1" vertex="1">
          <mxGeometry x="650" y="120" width="120" height="240" as="geometry" />
        </mxCell>
        <mxCell id="WyiyPVkX2-RSNoQSLLox-3" style="edgeStyle=orthogonalEdgeStyle;rounded=0;orthogonalLoop=1;jettySize=auto;html=1;exitX=0;exitY=0.75;exitDx=0;exitDy=0;entryX=1;entryY=0.75;entryDx=0;entryDy=0;" edge="1" parent="1" source="9NKGEl0jnILZwDAVQmjc-3" target="9NKGEl0jnILZwDAVQmjc-1">
          <mxGeometry relative="1" as="geometry" />
        </mxCell>
        <mxCell id="WyiyPVkX2-RSNoQSLLox-10" style="edgeStyle=orthogonalEdgeStyle;rounded=0;orthogonalLoop=1;jettySize=auto;html=1;exitX=1;exitY=0.25;exitDx=0;exitDy=0;entryX=0;entryY=0.125;entryDx=0;entryDy=0;entryPerimeter=0;" edge="1" parent="1" source="9NKGEl0jnILZwDAVQmjc-3" target="9NKGEl0jnILZwDAVQmjc-2">
          <mxGeometry relative="1" as="geometry" />
        </mxCell>
        <mxCell id="9NKGEl0jnILZwDAVQmjc-3" value="Flask" style="rounded=1;whiteSpace=wrap;html=1;" parent="1" vertex="1">
          <mxGeometry x="360" y="200" width="120" height="60" as="geometry" />
        </mxCell>
        <mxCell id="9NKGEl0jnILZwDAVQmjc-9" value="Face-Haar" style="text;html=1;strokeColor=none;fillColor=none;align=center;verticalAlign=middle;whiteSpace=wrap;rounded=0;" parent="1" vertex="1">
          <mxGeometry x="680" y="190" width="60" height="20" as="geometry" />
        </mxCell>
        <mxCell id="9NKGEl0jnILZwDAVQmjc-10" value="Object-Yolov3" style="text;html=1;strokeColor=none;fillColor=none;align=center;verticalAlign=middle;whiteSpace=wrap;rounded=0;" parent="1" vertex="1">
          <mxGeometry x="650" y="220" width="120" height="20" as="geometry" />
        </mxCell>
        <mxCell id="9NKGEl0jnILZwDAVQmjc-11" value="PoseEstimation-&lt;br&gt;OpenPose" style="text;html=1;strokeColor=none;fillColor=none;align=center;verticalAlign=middle;whiteSpace=wrap;rounded=0;" parent="1" vertex="1">
          <mxGeometry x="640" y="260" width="140" height="20" as="geometry" />
        </mxCell>
        <mxCell id="9NKGEl0jnILZwDAVQmjc-12" value="GPU" style="text;html=1;strokeColor=none;fillColor=none;align=center;verticalAlign=middle;whiteSpace=wrap;rounded=0;" parent="1" vertex="1">
          <mxGeometry x="690" y="140" width="40" height="20" as="geometry" />
        </mxCell>
        <mxCell id="9NKGEl0jnILZwDAVQmjc-14" value="" style="endArrow=none;html=1;exitX=0;exitY=0.25;exitDx=0;exitDy=0;entryX=1;entryY=0.25;entryDx=0;entryDy=0;" parent="1" source="9NKGEl0jnILZwDAVQmjc-2" target="9NKGEl0jnILZwDAVQmjc-2" edge="1">
          <mxGeometry width="50" height="50" relative="1" as="geometry">
            <mxPoint x="620" y="290" as="sourcePoint" />
            <mxPoint x="670" y="240" as="targetPoint" />
          </mxGeometry>
        </mxCell>
      </root>
    </mxGraphModel>
  </diagram>
</mxfile>
